<!DOCTYPE svg PUBLIC "-//W3C//DTD SVG 1.1//EN" "http://www.w3.org/Graphics/SVG/1.1/DTD/svg11.dtd">
<!-- Uploaded to: SVG Repo, www.svgrepo.com, Transformed by: SVG Repo Mixer Tools -->
<svg fill="#999" xmlns="http://www.w3.org/2000/svg" width="800px" height="800px" viewBox="0 0 52 52" enable-background="new 0 0 52 52" xml:space="preserve" stroke="#999">
<g id="SVGRepo_bgCarrier" stroke-width="0"/>
<g id="SVGRepo_tracerCarrier" stroke-linecap="round" stroke-linejoin="round" stroke="#CCCCCC" stroke-width="0.10400000000000001"/>
<g id="SVGRepo_iconCarrier"> <path d="M46,8H6c-1.1,0-2,0.9-2,2v32c0,1.1,0.9,2,2,2h40c1.1,0,2-0.9,2-2V10C48,8.9,47.1,8,46,8z M44,40H8V12h36V40z "/> <path d="M41,26H11.1c-0.6,0-1-0.4-1-1V15c0-0.6,0.4-1,1-1H41c0.6,0,1,0.4,1,1v10C42,25.6,41.6,26,41,26z"/> </g>
</svg>