<?xml version="1.0" encoding="utf-8"?><!-- Uploaded to: SVG Repo, www.svgrepo.com, Generator: SVG Repo Mixer Tools -->
<svg fill="#000000" xmlns="http://www.w3.org/2000/svg" 
	 width="800px" height="800px" viewBox="0 0 52 52" enable-background="new 0 0 52 52" xml:space="preserve">
<path d="M46,8H6c-1.1,0-2,0.9-2,2v32c0,1.1,0.9,2,2,2h40c1.1,0,2-0.9,2-2V10C48,8.9,47.1,8,46,8z M44,40H8V12h36V40z
	"/>
<path d="M41,26H11.1c-0.6,0-1-0.4-1-1V15c0-0.6,0.4-1,1-1H41c0.6,0,1,0.4,1,1v10C42,25.6,41.6,26,41,26z"/>
</svg>